<?xml version="1.0" standalone="no"?>
<!DOCTYPE svg PUBLIC "-//W3C//DTD SVG 20010904//EN"
 "http://www.w3.org/TR/2001/REC-SVG-20010904/DTD/svg10.dtd">
<svg version="1.0" xmlns="http://www.w3.org/2000/svg"
 width="1280.000000pt" height="640.000000pt" viewBox="0 0 1280.000000 640.000000"
 preserveAspectRatio="xMidYMid meet">
<metadata>
Created by potrace 1.15, written by Peter Selinger 2001-2017
</metadata>
<g transform="translate(0.000000,640.000000) scale(0.100000,-0.100000)"
fill="#CCCCCC" stroke="none">
<path d="M691 5534 c121 -101 274 -140 709 -179 418 -37 535 -60 671 -131 36
-19 83 -53 105 -75 38 -39 39 -41 19 -56 -58 -44 -180 -80 -415 -123 -201 -36
-363 -76 -410 -100 -19 -10 -83 -47 -141 -82 -151 -92 -211 -104 -634 -128
-204 -11 -282 -27 -368 -73 -280 -149 -302 -499 -48 -757 l76 -77 90 -17 c332
-60 636 -46 1290 59 116 19 335 52 487 75 397 58 588 111 724 199 58 38 149
126 170 164 19 33 185 61 369 61 136 0 174 -3 250 -23 227 -59 376 -179 446
-359 18 -45 23 -84 27 -189 l4 -131 -26 -17 c-14 -10 -88 -44 -163 -76 -76
-33 -154 -70 -174 -83 -35 -24 -36 -26 -43 -106 -14 -170 -13 -168 -60 -175
-114 -19 -224 -105 -279 -217 -52 -108 -54 -124 -18 -158 50 -45 151 -54 291
-24 72 15 78 15 157 -5 216 -55 438 -136 651 -235 229 -107 323 -160 812 -451
168 -99 373 -218 455 -263 439 -239 857 -382 1280 -438 72 -9 136 -21 142 -27
7 -5 24 -34 38 -64 l26 -55 117 7 c88 4 123 3 142 -7 36 -20 37 -53 1 -88 -26
-27 -36 -30 -92 -30 -34 0 -101 5 -149 11 -72 9 -91 9 -122 -4 -36 -15 -61
-58 -43 -75 4 -4 329 -5 723 -4 622 3 737 2 872 -13 200 -22 347 -17 414 13
57 26 53 40 -20 68 -41 16 -57 16 -173 4 -146 -15 -194 -10 -227 21 -34 32
-33 92 1 115 20 13 32 14 75 5 28 -6 66 -11 85 -11 33 0 33 1 22 29 -14 37 0
56 47 65 36 7 50 19 60 52 6 19 1 22 -41 28 -155 21 -393 26 -678 15 -450 -18
-788 -16 -910 5 -122 20 -238 52 -285 77 l-35 19 75 -5 c534 -36 963 -48 1460
-41 250 3 502 9 560 12 l105 5 -24 -21 c-17 -15 -37 -20 -76 -20 -107 0 -163
-43 -70 -54 57 -6 268 8 375 25 401 66 878 273 1283 555 58 41 87 71 142 149
231 325 639 544 1280 686 l149 33 -44 13 c-71 21 -236 51 -350 65 -158 18
-626 13 -975 -11 -635 -43 -667 -44 -1555 -37 -3096 24 -3720 26 -4555 16
-484 -5 -968 -12 -1075 -16 l-195 -5 25 22 c69 61 257 123 460 151 139 19 661
16 1030 -6 358 -22 627 -18 945 13 391 38 477 41 1405 42 919 1 1144 -4 1506
-36 150 -13 171 -13 310 5 319 42 602 36 783 -16 46 -14 90 -23 97 -20 7 3 14
20 16 38 l3 33 70 -5 c141 -10 1232 -1 1445 12 l215 13 0 30 c0 23 -8 34 -33
50 -81 49 -91 64 -103 153 -6 46 -9 134 -7 195 4 101 7 118 35 172 126 244
513 321 765 152 117 -78 177 -206 166 -350 -12 -140 -46 -191 -219 -319 -102
-74 -109 -82 -109 -114 0 -23 12 -51 35 -86 21 -29 33 -58 30 -67 -3 -9 77 67
178 169 201 203 229 243 250 364 25 145 -33 307 -148 415 -270 252 -791 250
-1024 -4 -98 -108 -125 -200 -116 -390 6 -123 5 -132 -17 -175 -39 -75 -83
-97 -223 -111 -160 -16 -463 -6 -785 25 -140 14 -295 28 -345 31 -73 6 -98 12
-135 35 -89 54 -158 89 -325 165 -242 110 -337 163 -440 250 -46 38 -56 42
-123 48 -51 4 -97 16 -155 41 -46 20 -91 36 -102 36 -10 0 -30 -14 -45 -32
-22 -27 -30 -30 -55 -24 -48 12 -120 93 -139 155 -18 60 -21 159 -7 207 l9 32
-67 16 c-142 35 -255 111 -348 234 -35 46 -59 70 -66 65 -7 -4 -82 -10 -167
-13 -201 -8 -239 -26 -228 -116 5 -41 38 -45 191 -23 73 10 148 16 167 12 38
-6 85 -27 94 -42 15 -23 -137 -34 -476 -32 -224 1 -348 -2 -348 -8 0 -21 62
-80 101 -95 75 -30 168 -35 408 -21 248 14 352 9 423 -23 l43 -19 -365 -7
c-201 -5 -443 -6 -537 -4 l-173 3 -6 -28 c-6 -31 14 -70 45 -87 11 -5 23 -19
26 -30 4 -14 15 -20 34 -20 15 0 72 -7 127 -15 54 -8 132 -15 172 -15 56 0 72
-3 72 -14 0 -18 -14 -28 -60 -42 -32 -9 -35 -13 -34 -46 l1 -35 -126 -6 c-232
-11 -357 -44 -746 -197 -327 -128 -480 -170 -627 -170 -93 0 -118 -15 -118
-70 0 -27 -5 -42 -17 -49 -10 -5 -70 -12 -133 -16 -63 -3 -331 -24 -595 -45
-722 -59 -1027 -71 -1318 -53 -93 5 -105 8 -95 21 11 12 33 14 134 8 149 -8
166 -3 189 61 10 26 31 61 48 77 30 29 31 29 121 22 120 -10 146 -8 173 9 31
21 50 61 63 136 29 166 -73 365 -244 474 -51 32 -51 33 -67 112 -22 106 -60
182 -124 251 -65 70 -139 116 -247 152 -84 29 -238 62 -238 51 1 -3 58 -37
128 -76 181 -100 261 -156 331 -230 65 -70 72 -88 41 -105 -29 -16 -51 0 -115
80 -31 39 -66 76 -78 84 -29 18 -336 92 -462 111 -191 29 -349 15 -490 -41
-61 -24 -86 -43 -190 -145 -66 -64 -140 -127 -165 -139 -53 -27 -136 -33 -150
-11 -12 21 0 39 85 130 82 88 115 144 115 194 0 35 0 35 58 42 31 3 138 24
237 45 199 43 293 57 435 68 l95 7 -70 19 c-203 53 -477 32 -743 -55 -51 -17
-63 -25 -68 -47 -21 -87 -102 -194 -206 -272 -199 -150 -480 -233 -793 -233
-293 -1 -510 70 -657 214 -68 67 -135 180 -120 204 36 57 140 200 174 238 l43
47 205 26 c602 74 959 181 1216 362 l71 51 -18 53 c-21 61 -24 150 -8 247 12
74 -2 178 -26 187 -7 3 -37 4 -66 2 l-54 -3 36 -40 c50 -56 62 -81 49 -104
-24 -46 -88 -30 -174 43 -28 23 -64 51 -81 61 -16 10 -35 25 -42 32 -7 9 -27
13 -58 11 l-48 -3 34 -44 c19 -24 75 -73 124 -107 135 -96 184 -141 213 -200
l26 -54 -25 -26 c-34 -37 -175 -129 -245 -160 -148 -65 -279 -104 -589 -174
-121 -28 -231 -52 -245 -56 -24 -5 -24 -5 -7 14 51 56 193 99 442 132 252 33
346 62 402 122 64 68 55 175 -20 240 -92 79 -282 124 -702 168 -410 42 -558
70 -654 121 -48 25 -65 29 -139 29 l-84 0 43 -36z m263 -910 c15 -39 3 -72
-51 -152 -56 -81 -58 -87 -57 -146 1 -118 74 -226 211 -317 73 -47 206 -102
279 -114 71 -12 70 -17 -11 -41 -340 -104 -801 -92 -1035 26 -82 42 -163 119
-197 188 -23 48 -27 68 -27 141 1 194 61 259 324 351 107 38 130 36 130 -10 0
-35 2 -36 35 -14 13 8 86 28 162 44 76 16 156 35 178 44 51 19 52 19 59 0z
m3435 -792 c101 -86 161 -215 161 -345 l0 -44 -87 -6 c-91 -7 -163 -26 -368
-98 -100 -35 -136 -43 -215 -46 l-95 -5 115 79 c213 145 288 246 298 399 4 65
0 96 -17 152 -11 38 -21 73 -21 76 0 8 168 -110 229 -162z m3821 16 c52 -12
45 -13 -150 -16 -207 -3 -270 1 -270 18 0 22 328 21 420 -2z m342 6 c32 -6 37
-11 43 -40 3 -19 15 -40 25 -47 25 -15 25 -33 1 -47 -25 -13 -158 -13 -166 0
-3 6 -1 26 7 45 10 29 10 40 -1 57 -21 34 10 45 91 32z m-829 -121 c-7 -2 -21
-2 -30 0 -10 3 -4 5 12 5 17 0 24 -2 18 -5z m405 -3 c48 0 49 -17 2 -20 -67
-6 -193 1 -184 9 15 15 46 20 93 15 24 -2 64 -4 89 -4z m487 -130 c418 -27
688 -98 891 -237 48 -33 118 -93 113 -97 -5 -4 -333 -34 -499 -46 -330 -23
-830 -31 -1857 -28 -594 2 -1079 6 -1077 9 6 10 136 47 214 60 94 17 433 16
665 0 189 -14 578 -15 640 -3 l40 8 -53 12 c-76 17 -287 31 -657 42 -176 5
-333 13 -349 16 -27 6 -22 10 65 51 239 114 359 143 620 150 l197 6 16 33 16
34 428 0 c235 0 499 -5 587 -10z m2976 -792 c22 -12 39 -26 39 -31 0 -7 -412
-8 -1182 -4 -1121 7 -2071 0 -3488 -23 -607 -11 -2797 -22 -2750 -15 34 6 765
33 1195 45 193 6 1462 15 2820 21 2090 9 2737 14 3259 27 54 2 76 -3 107 -20z
m-1536 -181 c44 -11 114 -23 155 -27 l75 -6 -40 -19 c-86 -40 -284 -28 -401
25 -55 24 -50 36 17 49 53 9 88 5 194 -22z m-948 -15 c403 -6 464 -9 478 -23
15 -15 14 -17 -9 -33 -14 -9 -26 -25 -26 -35 0 -16 13 -22 69 -35 90 -21 124
-20 316 4 153 19 325 27 325 14 0 -20 -39 -66 -70 -81 -31 -16 -67 -18 -300
-18 -216 0 -270 -3 -294 -15 -84 -43 -6 -65 197 -56 90 4 147 3 147 -2 0 -19
-37 -25 -200 -32 -220 -10 -281 -34 -191 -75 33 -15 64 -17 203 -15 90 2 174
2 188 1 l25 -2 -30 -17 c-24 -14 -67 -18 -225 -22 -177 -5 -199 -8 -237 -28
-24 -12 -43 -26 -43 -31 0 -5 14 -14 30 -21 23 -10 65 -11 168 -5 139 9 202 9
210 0 9 -9 -23 -38 -55 -52 -22 -9 -79 -13 -180 -13 -201 -1 -270 -18 -230
-58 15 -14 39 -17 140 -19 67 -2 131 -3 142 -3 16 -1 14 -4 -10 -17 -21 -11
-75 -19 -180 -25 -164 -10 -205 -20 -205 -49 0 -28 35 -37 118 -31 47 3 72 1
72 -6 0 -18 -31 -22 -171 -19 -103 1 -140 -1 -152 -12 -22 -17 -22 -49 0 -73
16 -17 11 -18 -123 -18 -76 0 -305 -7 -509 -15 -203 -7 -572 -21 -820 -30
-247 -9 -468 -19 -490 -23 -38 -7 -36 -8 50 -25 218 -41 251 -42 1025 -21 177
5 261 3 335 -7 124 -17 256 -15 411 6 427 58 763 159 1085 327 l99 52 0 57 0
58 35 7 c19 3 60 3 89 0 l55 -7 6 48 c10 74 9 73 70 73 67 0 76 13 50 71 -13
27 -15 43 -8 50 6 6 43 15 84 21 99 14 129 30 129 68 0 32 -30 60 -65 60 -11
1 7 12 40 26 62 25 111 64 121 96 5 17 20 18 200 18 l194 0 -203 -187 c-111
-104 -243 -222 -292 -264 -392 -331 -744 -501 -1190 -573 -342 -56 -1883 -92
-2425 -58 -558 36 -719 70 -1015 211 -152 73 -267 143 -580 351 -396 264 -583
369 -780 436 -95 32 -112 44 -64 44 18 0 149 7 289 15 321 18 755 34 1200 45
356 9 2161 4 2977 -8z" />
<path d="M12065 3809 c-137 -16 -250 -89 -296 -191 -19 -43 -24 -70 -24 -140
0 -82 2 -89 32 -130 18 -24 58 -89 90 -145 32 -57 61 -103 64 -103 3 0 20 32
39 70 l34 70 -43 43 c-65 64 -95 128 -95 207 0 172 168 294 340 245 66 -18 88
-34 124 -85 21 -30 25 -46 25 -110 0 -61 -5 -84 -27 -126 -44 -83 -127 -144
-198 -144 l-31 0 16 -30 c50 -96 198 -78 337 41 39 33 51 52 68 106 24 78 25
132 5 200 -45 151 -245 247 -460 222z"/>
<path d="M7969 935 c-3 -3 -210 -6 -460 -6 -481 -1 -509 -4 -509 -48 0 -22 38
-27 309 -41 193 -10 1573 -11 1741 -1 l105 6 -45 27 c-95 57 -131 60 -655 65
-265 2 -483 1 -486 -2z"/>
</g>
</svg>
